<svg width="222" height="222" viewBox="0 0 222 222" fill="none" xmlns="http://www.w3.org/2000/svg">
<g clip-path="url(#clip0_3669_285674)">
<path fill-rule="evenodd" clip-rule="evenodd" d="M0 0H11.5023C66.7307 0 111.502 44.7715 111.502 100V222H100C44.7715 222 0 177.228 0 122V0Z" fill="#F6B43A"/>
<path fill-rule="evenodd" clip-rule="evenodd" d="M222 90H210.498C155.269 90 110.498 134.772 110.498 190V222H122C177.228 222 222 177.228 222 122V90Z" fill="#FDCE95"/>
<path fill-rule="evenodd" clip-rule="evenodd" d="M132.597 108C139.809 108 145.656 113.82 145.656 121C145.656 128.18 139.809 134 132.597 134C125.385 134 119.538 128.18 119.538 121C119.538 113.82 125.385 108 132.597 108ZM169.765 108C176.977 108 182.824 113.82 182.824 121C182.824 128.18 176.977 134 169.765 134C162.553 134 156.706 128.18 156.706 121C156.706 113.82 162.553 108 169.765 108ZM132.597 72C139.809 72 145.656 77.8203 145.656 85C145.656 92.1797 139.809 98 132.597 98C125.385 98 119.538 92.1797 119.538 85C119.538 77.8203 125.385 72 132.597 72ZM169.765 72C176.977 72 182.824 77.8203 182.824 85C182.824 92.1797 176.977 98 169.765 98C162.553 98 156.706 92.1797 156.706 85C156.706 77.8203 162.553 72 169.765 72ZM132.597 36C139.809 36 145.656 41.8203 145.656 49C145.656 56.1797 139.809 62 132.597 62C125.385 62 119.538 56.1797 119.538 49C119.538 41.8203 125.385 36 132.597 36ZM169.765 36C176.977 36 182.824 41.8203 182.824 49C182.824 56.1797 176.977 62 169.765 62C162.553 62 156.706 56.1797 156.706 49C156.706 41.8203 162.553 36 169.765 36ZM132.597 0C139.809 0 145.656 5.8203 145.656 13C145.656 20.1797 139.809 26 132.597 26C125.385 26 119.538 20.1797 119.538 13C119.538 5.8203 125.385 0 132.597 0ZM169.765 0C176.977 0 182.824 5.8203 182.824 13C182.824 20.1797 176.977 26 169.765 26C162.553 26 156.706 20.1797 156.706 13C156.706 5.8203 162.553 0 169.765 0Z" fill="#FF9A22"/>
</g>
<defs>
<clipPath id="clip0_3669_285674">
<rect width="222" height="222" fill="white"/>
</clipPath>
</defs>
</svg>
